<svg xmlns="http://www.w3.org/2000/svg" viewBox="0 0 24 23.97"><defs><style>.cls-1,.cls-2{fill:#fff;}.cls-2{fill-rule:evenodd;}</style></defs><title>excel</title><g id="Layer_2" data-name="Layer 2"><g id="Layer_1-2" data-name="Layer 1"><rect class="cls-1" x="17.56" y="4.65" width="3.71" height="1.89"/><rect class="cls-1" x="17.56" y="7.65" width="3.71" height="1.89"/><rect class="cls-1" x="17.56" y="10.65" width="3.71" height="1.89"/><rect class="cls-1" x="17.56" y="13.65" width="3.71" height="1.89"/><rect class="cls-1" x="17.56" y="16.65" width="3.71" height="1.89"/><path class="cls-2" d="M23,2.05H14.27V0L0,2.2V21.51L14.27,24v-3H23A1,1,0,0,0,24,20V3A1,1,0,0,0,23,2.05Zm-13,14.07L8,16,6.67,12.54,5.36,15.85,3.57,15.7l2.07-4L3.73,7.42l1.84-.11,1.15,3.18L8.09,7.18l1.84-.1L7.69,11.59Zm13.16,4H14.24V18.54h2.13V16.65H14.21V15.53h2.16V13.65H14.19V12.53h2.18V10.65H14.17V9.53h2.19V7.65H14.17V6.53h2.19V4.65H14.17V2.93h8.92Z"/></g></g></svg>